<svg width="72" height="71" viewBox="0 0 72 71" fill="none" xmlns="http://www.w3.org/2000/svg">
<path d="M71.6906 22.0773C70.9555 19.5586 65.3257 14.2783 63.5731 12.5605C61.5394 10.5658 59.8664 8.23099 57.8389 6.22866C56.2256 4.63562 54.9891 4.81192 52.8795 5.16831C51.9292 5.32825 51.4715 4.53487 50.9466 3.91403C50.8732 3.82713 50.7985 3.74402 50.7214 3.66594C49.684 2.63078 48.1553 2.00111 46.7908 1.56791C43.9684 0.670009 37.8075 0.5 37.7093 0.5H34.6506C34.5523 0.5 28.3914 0.670009 25.5678 1.56665C24.2033 1.99985 22.6758 2.62952 21.6372 3.66468C21.5601 3.7415 21.4854 3.82587 21.412 3.91277C20.8884 4.53361 20.4306 5.32447 19.484 5.16831C15.2263 4.46435 12.0631 8.57352 9.68853 11.5002C6.86245 14.9835 3.00519 18.2917 0.667957 22.0773C-2.28749 26.8639 5.28521 36.9398 9.31163 40.1271C12.7024 42.8082 17.5137 35.518 18.4479 32.6014C18.8161 31.4517 20.0798 31.8018 20.509 32.9288C22.3002 37.6375 21.5202 38.5202 23.4321 42.8649C25.5293 47.6327 32.2686 49.1112 34.6506 49.1112H37.7093C40.0913 49.1112 46.8293 47.634 48.9278 42.8649C50.8396 38.5202 50.0584 37.6375 51.8509 32.9288C52.28 31.8018 53.5438 31.4517 53.912 32.6014C54.8461 35.518 59.6574 42.8082 63.0482 40.1271C67.0759 36.9398 73.2728 27.4911 71.6919 22.0773H71.6906ZM41.1946 31.8823L40.0851 33.1794L37.5563 36.1351C36.7204 37.1123 35.224 37.1123 34.3894 36.1351L31.8606 33.1794L30.751 31.8823C29.5756 30.5084 30.5396 28.3726 32.3345 28.3726H39.6111C41.4061 28.3726 42.3701 30.5084 41.1946 31.8823Z" fill="#2371EE"/>
<path d="M13.596 70.7962C12.7817 70.7962 12.0138 70.6382 11.2921 70.3222C10.5704 70.0063 9.95968 69.5881 9.46003 69.0678C8.96039 68.5288 8.63654 67.9434 8.4885 67.3115V59.7288C8.63654 59.097 8.96039 58.5394 9.46003 58.0562C9.95968 57.573 10.5704 57.2013 11.2921 56.9411C12.0138 56.6623 12.7817 56.5229 13.596 56.5229C14.9469 56.5229 16.1219 56.8296 17.1212 57.4429C18.139 58.0376 18.9255 58.8739 19.4807 59.9519C20.0543 61.0298 20.3412 62.2657 20.3412 63.6595C20.3412 65.0534 20.0543 66.2893 19.4807 67.3672C18.9255 68.4266 18.139 69.2629 17.1212 69.8762C16.1219 70.4895 14.9469 70.7962 13.596 70.7962ZM5.1853 70.7962L5.1853 50.1111H10.6259V60.1749L9.73761 63.4923L10.4871 66.8376V70.7962H5.1853ZM12.5967 66.0012C13.0408 66.0012 13.4294 65.899 13.7625 65.6946C14.1141 65.4902 14.3824 65.2114 14.5675 64.8583C14.7711 64.5052 14.8728 64.1056 14.8728 63.6595C14.8728 63.2135 14.7711 62.8139 14.5675 62.4608C14.3824 62.1077 14.1141 61.8289 13.7625 61.6245C13.4109 61.4201 13.0131 61.3178 12.5689 61.3178C12.1248 61.3178 11.7269 61.4201 11.3753 61.6245C11.0422 61.8289 10.7832 62.1077 10.5981 62.4608C10.4131 62.7953 10.3205 63.1949 10.3205 63.6595C10.3205 64.1242 10.4131 64.533 10.5981 64.8862C10.8017 65.2393 11.07 65.518 11.4031 65.7225C11.7547 65.9083 12.1526 66.0012 12.5967 66.0012Z" fill="#2371EE"/>
<path d="M28.6228 70.8519C27.2904 70.8519 26.1061 70.5917 25.0698 70.0713C24.052 69.551 23.247 68.8262 22.6548 67.8969C22.0627 66.9677 21.7666 65.9083 21.7666 64.7189V56.8017H27.2071V64.7746C27.2071 65.0534 27.2627 65.3043 27.3737 65.5273C27.5032 65.7503 27.6698 65.9269 27.8733 66.057C28.0954 66.1685 28.3452 66.2243 28.6228 66.2243C29.0114 66.2243 29.3353 66.0942 29.5943 65.834C29.8719 65.5552 30.0107 65.2021 30.0107 64.7746V56.8017H35.4513V64.7189C35.4513 65.9269 35.1552 66.9955 34.563 67.9248C33.9893 68.8354 33.1844 69.551 32.1481 70.0713C31.1303 70.5917 29.9552 70.8519 28.6228 70.8519Z" fill="#2371EE"/>
<path d="M43.5995 70.7962C42.2486 70.7962 41.0643 70.4895 40.0465 69.8762C39.0472 69.2629 38.2607 68.4266 37.6871 67.3672C37.1319 66.2893 36.8543 65.0534 36.8543 63.6595C36.8543 62.2657 37.1319 61.0298 37.6871 59.9519C38.2607 58.8739 39.0472 58.0376 40.0465 57.4429C41.0643 56.8296 42.2486 56.5229 43.5995 56.5229C44.4138 56.5229 45.1817 56.6623 45.9034 56.9411C46.6251 57.2013 47.2358 57.573 47.7355 58.0562C48.2536 58.5394 48.5775 59.097 48.707 59.7288V67.3115C48.5775 67.9434 48.2536 68.5288 47.7355 69.0678C47.2358 69.5881 46.6251 70.0063 45.9034 70.3222C45.1817 70.6382 44.4138 70.7962 43.5995 70.7962ZM44.5988 66.0012C45.0614 66.0012 45.4593 65.9083 45.7924 65.7225C46.1255 65.518 46.3846 65.2393 46.5696 64.8862C46.7732 64.533 46.875 64.1242 46.875 63.6595C46.875 63.1949 46.7824 62.7953 46.5974 62.4608C46.4123 62.1077 46.144 61.8289 45.7924 61.6245C45.4593 61.4201 45.0707 61.3178 44.6266 61.3178C44.1824 61.3178 43.7846 61.4201 43.433 61.6245C43.0999 61.8289 42.8316 62.1077 42.628 62.4608C42.4244 62.8139 42.3227 63.2135 42.3227 63.6595C42.3227 64.1056 42.4152 64.5052 42.6002 64.8583C42.8038 65.2114 43.0814 65.4902 43.433 65.6946C43.7846 65.899 44.1732 66.0012 44.5988 66.0012ZM52.0102 70.7962H46.7084V66.8376L47.4579 63.4923L46.5696 60.1749V50.1111H52.0102V70.7962Z" fill="#2371EE"/>
<path d="M53.9075 67.2L60.0142 60.1191H66.7594L60.6527 67.2H53.9075ZM53.9075 70.7962V67.2L57.1552 66.1685H66.5929V70.7962H53.9075ZM54.3794 61.1506V56.8017H66.7594V60.1191L63.5118 61.1506H54.3794Z" fill="#2371EE"/>
</svg>
